<svg xmlns="http://www.w3.org/2000/svg" aria-hidden="true" style="position:absolute;width:0;height:0;overflow:hidden">
  <defs>
    <symbol id="icon-adidas" viewBox="0 0 47 32">
      <path d="M24.452 2.28c-1.853 1.064-3.387 1.942-3.409 1.95s2.098 3.729 4.711 8.269l4.75 8.254h9.13l-.111-.196C39.267 20.102 27.922.494 27.874.423c-.047-.069-.433.141-3.422 1.857zm-7.826 7.186c-1.867 1.076-3.389 1.979-3.382 2.006s1.217 2.132 2.69 4.676l2.678 4.627v1.916h1.94v-1.939l7.114-.024-3.816-6.605c-2.099-3.633-3.819-6.607-3.823-6.61s-1.535.875-3.402 1.951zm-7.987 6.992c-1.84 1.066-3.361 1.954-3.38 1.973s.259.55.619 1.178l.654 1.143h4.544c3.617 0 4.54-.012 4.522-.058-.055-.142-3.542-6.153-3.575-6.164-.021-.006-1.543.861-3.383 1.927zm7.063 5.935v1.641l-.335-.183c-1.18-.645-2.596-.663-3.845-.047-.815.402-1.404.983-1.799 1.775-.332.667-.417 1.036-.413 1.801.004.772.094 1.168.407 1.801a4.108 4.108 0 0 0 3.652 2.285c.661 0 1.307-.163 1.95-.491l.382-.195v.502h1.94v-10.53h-1.94v1.641zm12.009-.007v1.634l-.335-.179a4.176 4.176 0 0 0-4.471.356 4.107 4.107 0 0 0-1.502 2.373c-.076.359-.085 1.123-.017 1.505a4.086 4.086 0 0 0 4.586 3.349c.464-.062 1.191-.306 1.518-.509l.221-.137v.504h1.94v-10.53h-1.94v1.634zm-23.909.999c-1.558.22-2.861 1.303-3.333 2.772A4.077 4.077 0 0 0 2.5 31.01c1.198.605 2.531.606 3.745.003l.45-.224v.494h1.894v-7.852H6.695v.593l-.439-.223a4.23 4.23 0 0 0-.845-.319c-.472-.111-1.203-.155-1.61-.098zm29.992.001c-1.01.16-2.016.732-2.615 1.489-.31.391-.573.897-.726 1.397-.114.374-.127.483-.126 1.085.002.775.085 1.166.379 1.778.532 1.11 1.497 1.897 2.732 2.226.425.114 1.475.111 1.909-.004a4.45 4.45 0 0 0 1.088-.441l.236-.139v.506h1.94v-7.852h-1.94v.306c0 .239-.013.296-.058.259-.163-.133-.843-.428-1.185-.513-.446-.111-1.243-.159-1.634-.097zm8.535-.017c-1.405.167-2.355.82-2.663 1.833-.08.261-.093.399-.075.795.02.439.036.509.195.83.421.852 1.033 1.157 2.964 1.475.946.156 1.265.259 1.448.467.291.331.114.818-.39 1.077-.209.107-.282.119-.762.119-.415 0-.585-.02-.778-.091-.449-.167-.752-.515-.82-.944l-.03-.189h-2.02v.152c0 .246.129.671.306 1.008.557 1.06 1.903 1.639 3.6 1.548 1.901-.102 3.015-.958 3.144-2.417.108-1.224-.699-2.116-2.208-2.44a39.487 39.487 0 0 0-1.17-.227c-.807-.143-1.089-.233-1.296-.415-.206-.18-.251-.402-.133-.651.064-.134.141-.202.34-.295.238-.111.305-.121.881-.121.597 0 .633.005.839.127a.88.88 0 0 1 .447.67l.031.219.981.012c1.12.014 1.029.059.91-.447-.143-.605-.627-1.264-1.172-1.595-.639-.388-1.733-.602-2.567-.503zm-23.717 3.988v3.926h1.94v-7.852h-1.94v3.926zM4.99 25.215c.889.264 1.528.983 1.667 1.878.107.687-.133 1.355-.672 1.873-1.052 1.01-2.699.813-3.495-.418-.244-.377-.336-.758-.313-1.292.017-.381.039-.476.188-.789.479-1.008 1.618-1.552 2.625-1.253zm9.007-.001a2.3 2.3 0 0 1 1.057.648c.867.927.841 2.236-.063 3.104-.879.844-2.203.866-3.094.052-.427-.39-.648-.812-.722-1.375-.138-1.059.606-2.143 1.668-2.429.334-.09.846-.09 1.153.001zm12.287.084a2.286 2.286 0 0 1 1.427 2.105c0 1.081-.787 1.991-1.886 2.179-.72.123-1.416-.107-1.944-.644-.494-.503-.674-.975-.643-1.686.016-.374.04-.472.183-.774.287-.6.749-1.015 1.378-1.236.42-.147 1.041-.124 1.484.056zm8.727-.083c.411.122.694.291.989.59.722.732.873 1.714.405 2.637-.173.341-.638.783-1.005.955-1.494.699-3.213-.401-3.209-2.053.002-.942.745-1.873 1.708-2.139a2.485 2.485 0 0 1 1.112.011z"/>
    </symbol>
    <symbol id="icon-apple" viewBox="0 0 27 32">
      <path d="M19.229.016c-1.346.13-2.926.909-4.034 1.99-1.186 1.157-1.987 2.765-2.128 4.269-.022.231-.012.781.017.934l.019.104.133.019c.195.028.675.011.921-.032.94-.164 1.92-.627 2.795-1.321.265-.21.754-.705.995-1.007a7.59 7.59 0 0 0 .889-1.401 7.08 7.08 0 0 0 .671-2.195c.033-.231.048-.951.024-1.137-.033-.257-.027-.242-.101-.239a4.403 4.403 0 0 0-.201.015zm-.603 7.701a7.738 7.738 0 0 0-1.285.207c-.567.14-.992.285-1.993.677-.812.319-1.064.407-1.39.49a2.362 2.362 0 0 1-1.226-.009c-.317-.079-.549-.161-1.383-.492-.802-.318-1.095-.424-1.474-.534-.924-.267-1.662-.327-2.593-.209a7.443 7.443 0 0 0-2.849.976C2.73 9.827 1.458 11.449.774 13.489c-.506 1.507-.683 3.215-.528 5.092.142 1.719.562 3.543 1.214 5.271a19.608 19.608 0 0 0 1.546 3.192c.514.837 1.549 2.241 2.193 2.974 1.197 1.363 2.306 1.944 3.546 1.855.653-.047 1.067-.163 2.072-.582.648-.271.919-.372 1.254-.469a6.233 6.233 0 0 1 3.152-.071c.415.104.655.19 1.362.493.878.375 1.214.481 1.767.557.245.034.772.047.981.024.966-.104 1.848-.583 2.725-1.483.535-.549 1.077-1.239 1.856-2.364a17.515 17.515 0 0 0 2.098-4.157c.144-.426.145-.43.099-.444-.157-.048-.756-.378-1.071-.588-1.8-1.202-2.886-2.935-3.121-4.978-.195-1.699.179-3.315 1.089-4.694a7.766 7.766 0 0 1 2.106-2.108 1.13 1.13 0 0 0 .191-.144c0-.026-.214-.312-.399-.534-1.312-1.57-3.167-2.471-5.362-2.608a10.49 10.49 0 0 0-.919-.005z"/>
    </symbol>
    <symbol id="icon-behance" viewBox="0 0 32 32">
      <path d="M10.404 7.641c.785 0 1.492.068 2.14.207.644.137 1.193.364 1.657.677.457.313.815.729 1.072 1.252.249.516.373 1.161.373 1.924 0 .827-.187 1.517-.561 2.068-.377.552-.933 1.004-1.675 1.353 1.009.292 1.757.803 2.253 1.528.499.732.743 1.608.743 2.635 0 .833-.159 1.549-.477 2.151a4.146 4.146 0 0 1-1.299 1.485 5.742 5.742 0 0 1-1.865.853c-.7.184-1.421.276-2.145.275H2.667V7.641h7.737zm-.468 6.63c.64 0 1.171-.152 1.589-.46.416-.304.617-.805.617-1.492 0-.381-.068-.696-.201-.943a1.488 1.488 0 0 0-.556-.571 2.265 2.265 0 0 0-.796-.287 4.826 4.826 0 0 0-.929-.081H6.28v3.833h3.656zm.201 6.985a4.59 4.59 0 0 0 1.013-.103c.321-.069.607-.181.849-.348a1.72 1.72 0 0 0 .587-.655c.145-.275.216-.633.216-1.064 0-.845-.239-1.447-.711-1.811-.473-.36-1.108-.539-1.885-.539H6.279v4.52l3.857-.001zm11.42-.055c.489.477 1.195.717 2.112.717.657 0 1.225-.167 1.704-.497.472-.332.76-.687.871-1.053h2.873c-.461 1.429-1.161 2.451-2.119 3.065-.945.617-2.096.924-3.44.924-.936 0-1.779-.151-2.533-.449a5.388 5.388 0 0 1-1.919-1.277 5.839 5.839 0 0 1-1.207-1.98 7.256 7.256 0 0 1-.427-2.532c0-.888.148-1.719.439-2.485.276-.741.7-1.418 1.245-1.991a5.918 5.918 0 0 1 1.925-1.325 6.177 6.177 0 0 1 2.477-.483c1.005 0 1.884.195 2.639.587a5.287 5.287 0 0 1 1.853 1.576 6.438 6.438 0 0 1 1.044 2.255c.215.843.289 1.723.228 2.644h-8.575c.001.939.317 1.828.808 2.305zm3.75-6.241c-.388-.429-1.044-.661-1.847-.661-.521 0-.952.087-1.299.265-.317.16-.598.383-.827.655a2.364 2.364 0 0 0-.437.837 3.72 3.72 0 0 0-.148.783h5.309c-.077-.832-.363-1.447-.752-1.879zm-5.224-6.217h6.652v1.62h-6.652v-1.62z"/>
    </symbol>
    <symbol id="icon-discord" viewBox="0 0 32 32">
      <path d="M12.791 14.628c-.723 0-1.292.633-1.292 1.407 0 .771.583 1.407 1.292 1.407.721 0 1.291-.636 1.291-1.407.015-.775-.569-1.407-1.291-1.407zm4.624 0c-.723 0-1.292.633-1.292 1.407 0 .771.583 1.407 1.292 1.407.721 0 1.291-.636 1.291-1.407-.001-.775-.569-1.407-1.291-1.407z"/>
      <path d="M23.571 4H6.596a2.593 2.593 0 0 0-1.838.767A2.603 2.603 0 0 0 4 6.61v17.125a2.602 2.602 0 0 0 2.596 2.609H20.96l-.673-2.345 1.623 1.508 1.532 1.419 2.725 2.408V6.61A2.606 2.606 0 0 0 23.571 4zM18.68 20.543s-.456-.544-.835-1.028c1.659-.469 2.292-1.507 2.292-1.507a7.335 7.335 0 0 1-1.457.749 8.903 8.903 0 0 1-5.117.531 10.565 10.565 0 0 1-1.861-.547 7.234 7.234 0 0 1-.924-.428c-.039-.028-.076-.039-.113-.064a.145.145 0 0 1-.052-.04c-.228-.125-.355-.213-.355-.213s.608 1.013 2.217 1.495c-.38.48-.849 1.052-.849 1.052-2.799-.089-3.861-1.925-3.861-1.925 0-4.079 1.824-7.384 1.824-7.384 1.824-1.369 3.559-1.331 3.559-1.331l.127.152c-2.28.66-3.332 1.66-3.332 1.66s.28-.152.748-.367c1.355-.595 2.431-.76 2.875-.799.076-.012.14-.025.216-.025a10.339 10.339 0 0 1 6.371 1.191s-1.001-.949-3.155-1.608l.177-.203s1.736-.039 3.559 1.331c0 0 1.824 3.305 1.824 7.384 0 0-1.076 1.835-3.876 1.924z"/>
    </symbol>
    <symbol id="icon-dribbble" viewBox="0 0 32 32">
      <path d="M27.547 9.307a13.24 13.24 0 0 0-4.855-4.853C20.648 3.263 18.417 2.667 16 2.667s-4.648.596-6.693 1.787C7.263 5.645 5.644 7.263 4.454 9.307S2.667 13.583 2.667 16s.595 4.649 1.787 6.693a13.225 13.225 0 0 0 4.855 4.853c2.044 1.191 4.275 1.787 6.692 1.787s4.648-.596 6.693-1.787a13.247 13.247 0 0 0 4.855-4.853c1.191-2.044 1.785-4.276 1.785-6.693s-.595-4.649-1.787-6.693zM16 4.88c2.667 0 5.029.853 7.093 2.559-1.227 1.565-3.048 2.853-5.467 3.867-1.336-2.417-2.784-4.436-4.348-6.053.886-.245 1.802-.37 2.721-.372zM7.347 9.067a10.828 10.828 0 0 1 3.615-2.96c1.616 1.601 3.1 3.6 4.453 6-2.667.8-5.485 1.2-8.455 1.2-.764 0-1.341-.017-1.733-.053a11.42 11.42 0 0 1 2.12-4.187zM4.88 16c0-.072.004-.16.013-.267s.013-.195.013-.267c.339.019.855.027 1.548.027 3.555 0 6.861-.489 9.919-1.467.249.497.508 1.057.773 1.68-1.76.391-3.565 1.341-5.415 2.853s-3.199 3.103-4.052 4.773c-1.867-2.116-2.8-4.56-2.8-7.333zM16 27.12c-2.525 0-4.792-.783-6.801-2.345.801-1.583 2.032-3.096 3.695-4.535 1.661-1.44 3.311-2.337 4.947-2.693a39.253 39.253 0 0 1 2.08 8.827 10.91 10.91 0 0 1-3.92.747zm9.44-5.28A11.143 11.143 0 0 1 22 25.335a38.344 38.344 0 0 0-1.839-8.108 47.734 47.734 0 0 1 3.333-.133c1.065 0 2.248.045 3.545.133a10.787 10.787 0 0 1-1.6 4.613zm-1.653-6.667c-1.547 0-2.977.063-4.293.187-.279-.73-.581-1.45-.907-2.16 2.755-1.208 4.709-2.675 5.865-4.4 1.6 1.885 2.472 4.036 2.613 6.453a67.073 67.073 0 0 0-3.279-.08z"/>
    </symbol>
    <symbol id="icon-facebook" viewBox="0 0 32 32">
      <path d="M26.667 4H5.334A1.335 1.335 0 0 0 4 5.334v21.333A1.33 1.33 0 0 0 5.334 28h11.487v-9.28h-3.117v-3.633h3.117V12.42c0-3.1 1.893-4.789 4.667-4.789.932-.003 1.865.045 2.793.143v3.227h-1.913c-1.504 0-1.797.717-1.797 1.767v2.313h3.596l-.467 3.633h-3.131v9.287h6.099a1.333 1.333 0 0 0 1.333-1.333V5.335a1.333 1.333 0 0 0-1.333-1.334z"/>
    </symbol>
    <symbol id="icon-google" viewBox="0 0 96 32">
      <path d="M41.309 16.753c0 4.511-3.529 7.834-7.859 7.834s-7.859-3.324-7.859-7.834c0-4.542 3.529-7.834 7.859-7.834s7.859 3.292 7.859 7.834zm-3.441 0c0-2.819-2.045-4.747-4.419-4.747s-4.419 1.929-4.419 4.747c0 2.79 2.045 4.747 4.419 4.747s4.419-1.96 4.419-4.747zM58.263 16.753c0 4.511-3.529 7.834-7.859 7.834s-7.859-3.324-7.859-7.834c0-4.539 3.529-7.834 7.859-7.834s7.859 3.292 7.859 7.834zm-3.44 0c0-2.819-2.045-4.747-4.419-4.747s-4.419 1.929-4.419 4.747c0 2.79 2.045 4.747 4.419 4.747s4.419-1.96 4.419-4.747zM74.511 9.392v14.065c0 5.786-3.412 8.149-7.446 8.149-3.797 0-6.082-2.54-6.944-4.617l2.995-1.247c.533 1.275 1.84 2.78 3.945 2.78 2.582 0 4.182-1.593 4.182-4.592v-1.127h-.12c-.77.95-2.253 1.78-4.125 1.78-3.917 0-7.506-3.412-7.506-7.802 0-4.422 3.589-7.863 7.506-7.863 1.868 0 3.352.83 4.125 1.752h.12V9.395h3.267v-.004zm-3.024 7.389c0-2.759-1.84-4.775-4.182-4.775-2.374 0-4.362 2.017-4.362 4.775 0 2.73 1.989 4.719 4.362 4.719 2.342 0 4.182-1.989 4.182-4.719zM79.897 1.147v22.959h-3.356V1.147h3.356zM92.973 19.331l2.67 1.78c-.862 1.275-2.938 3.472-6.527 3.472-4.45 0-7.774-3.44-7.774-7.834 0-4.659 3.352-7.834 7.389-7.834 4.066 0 6.054 3.235 6.704 4.984l.357.89-10.473 4.337c.802 1.572 2.049 2.374 3.797 2.374 1.752 0 2.967-.862 3.857-2.169zm-8.219-2.818 7.001-2.907c-.386-.978-1.544-1.66-2.907-1.66-1.748 0-4.182 1.544-4.094 4.567zM12.889 14.714V11.39h11.2c.11.579.166 1.265.166 2.006 0 2.494-.682 5.577-2.879 7.774-2.137 2.225-4.867 3.412-8.484 3.412-6.704 0-12.341-5.461-12.341-12.165S6.188.252 12.892.252c3.709 0 6.351 1.455 8.336 3.352l-2.345 2.345c-1.424-1.335-3.352-2.374-5.994-2.374-4.896 0-8.724 3.945-8.724 8.841s3.829 8.841 8.724 8.841c3.175 0 4.984-1.275 6.142-2.434.939-.94 1.558-2.282 1.801-4.115l-7.944.004z"/>
    </symbol>
    <symbol id="icon-nike" viewBox="0 0 91 32">
      <path d="M88.218.418c-.753.202-4.891 1.31-9.197 2.461L68.608 5.664l-8.665 2.318a59011.8 59011.8 0 0 0-35.647 9.538c-2.686.723-3.783.883-5.549.811-2.734-.113-4.963-.966-6.564-2.512-1.685-1.627-2.455-3.754-2.343-6.469.086-2.085.654-4.228 1.771-6.684.265-.583.474-1.067.465-1.075s-.436.488-.947 1.104C5.192 9.85 1.674 16.143.889 21.017c-.171 1.061-.155 2.794.035 3.726.394 1.935 1.417 3.402 3.307 4.74 3.838 2.718 8.539 3.012 14.867.928 2.448-.806 5.44-2.027 16.561-6.755l6.118-2.6c1.839-.781 3.567-1.516 3.838-1.634A36751.902 36751.902 0 0 0 84.113 2.966c3.093-1.324 5.689-2.47 5.768-2.547.179-.174.111-.382-.122-.374-.095.003-.789.171-1.541.373z"/>
    </symbol>
    <symbol id="icon-nstagram" viewBox="0 0 32 32">
      <path d="M15.999 9.836a6.17 6.17 0 0 0-6.166 6.166 6.165 6.165 0 1 0 6.166-6.166zm0 10.17a4.006 4.006 0 1 1 0-8.011 4.006 4.006 0 0 1 0 8.011zM22.408 11.047a1.437 1.437 0 1 0 0-2.873 1.437 1.437 0 0 0 0 2.873z"/>
      <path d="M27.377 8.148a6.135 6.135 0 0 0-3.511-3.509 8.8 8.8 0 0 0-2.915-.56c-1.284-.056-1.691-.072-4.947-.072s-3.673 0-4.947.072a8.737 8.737 0 0 0-2.912.56 6.123 6.123 0 0 0-3.51 3.51 8.799 8.799 0 0 0-.559 2.915c-.057 1.283-.075 1.689-.075 4.947 0 3.256 0 3.671.075 4.947a8.79 8.79 0 0 0 .559 2.916 6.138 6.138 0 0 0 3.512 3.509 8.79 8.79 0 0 0 2.913.6c1.284.056 1.691.073 4.947.073s3.673 0 4.947-.073a8.804 8.804 0 0 0 2.915-.559 6.15 6.15 0 0 0 3.51-3.51 8.769 8.769 0 0 0 .559-2.915c.057-1.283.075-1.689.075-4.947s0-3.671-.075-4.947a8.787 8.787 0 0 0-.561-2.956zm-1.624 12.71a6.733 6.733 0 0 1-.415 2.251 3.986 3.986 0 0 1-2.283 2.281 6.641 6.641 0 0 1-2.227.415c-1.267.059-1.624.073-4.872.073-3.251 0-3.583 0-4.873-.073a6.605 6.605 0 0 1-2.225-.415 3.988 3.988 0 0 1-2.292-2.281 6.786 6.786 0 0 1-.415-2.225c-.057-1.267-.071-1.624-.071-4.872 0-3.249 0-3.581.071-4.873a6.717 6.717 0 0 1 .415-2.249 3.984 3.984 0 0 1 2.292-2.283 6.684 6.684 0 0 1 2.225-.415c1.268-.057 1.624-.073 4.873-.073s3.583 0 4.872.073a6.592 6.592 0 0 1 2.227.415 3.99 3.99 0 0 1 2.283 2.283c.262.713.402 1.466.415 2.225.057 1.268.072 1.624.072 4.873 0 3.248 0 3.597-.057 4.872h-.015v-.001z"/>
    </symbol>
    <symbol id="icon-samsung" viewBox="0 0 192 32">
      <path d="M8.689 1.228C5.341 1.49 2.935 2.621 1.664 4.53.887 5.697.553 6.883.503 8.647c-.028 1 .021 1.609.192 2.344.422 1.821 1.641 3.307 3.997 4.869.841.557 1.431.905 3.385 1.993 2.446 1.362 3.185 1.854 3.982 2.652.584.585.841.997.974 1.559.158.668.056 1.599-.243 2.23-.416.876-1.195 1.288-2.434 1.287-1.431-.002-2.375-.635-2.678-1.796-.061-.233-.077-.611-.077-1.811v-1.517H.289v1.268c0 1.367.052 2.096.202 2.826.601 2.926 2.671 4.834 6.068 5.592 2.436.544 5.579.484 7.86-.15 1.431-.397 2.576-1.016 3.465-1.872 1.158-1.115 1.72-2.323 1.97-4.235.122-.931.121-2.898-.001-3.681-.331-2.123-1.556-3.717-4.171-5.425-.866-.565-1.637-1.008-3.598-2.063-2.417-1.3-3.295-1.873-3.933-2.562-.509-.55-.699-1.055-.699-1.861 0-1.547.932-2.464 2.502-2.461 1.07.002 1.85.398 2.245 1.139.269.505.311.764.311 1.95v1.066h6.811V8.949c-.001-2.024-.173-3.024-.705-4.088-.997-1.996-3.088-3.181-6.284-3.562-.79-.094-2.837-.134-3.64-.072zm88.603.149c-3.669.286-6.164 1.58-7.327 3.8a7.62 7.62 0 0 0-.606 1.622c-.321 1.383-.313 3.183.02 4.451.447 1.704 1.754 3.225 4.057 4.722.689.448 1.412.871 2.909 1.703.728.404 1.664.939 2.08 1.188 1.706 1.021 2.676 1.928 3.03 2.833.156.4.19 1.302.07 1.851-.223 1.019-.762 1.595-1.728 1.849-.435.114-1.364.116-1.789.003-.716-.19-1.314-.639-1.582-1.188-.242-.496-.283-.84-.284-2.39l-.001-1.415h-7.222l.026 1.64c.021 1.359.043 1.735.128 2.191.543 2.928 2.456 4.843 5.66 5.665 2.534.65 5.883.617 8.298-.083 1.441-.417 2.473-.997 3.384-1.899 1.434-1.421 1.968-3.061 1.966-6.037-.001-1.259-.056-1.773-.274-2.574-.425-1.561-1.818-3.144-4.028-4.574-.737-.477-1.611-.975-3.394-1.935-2.5-1.346-3.355-1.902-3.993-2.598-.617-.673-.826-1.491-.625-2.441.251-1.183 1.115-1.827 2.453-1.827 1.004 0 1.8.415 2.197 1.146.253.466.292.694.318 1.87l.025 1.089h6.7v-1.15c0-.632-.025-1.382-.055-1.665-.36-3.343-2.654-5.275-6.855-5.772-.813-.096-2.757-.137-3.556-.075zm82.255-.02a20.31 20.31 0 0 0-2.216.368c-1.595.39-2.787 1.023-3.773 2.002-1.14 1.132-1.699 2.344-2.004 4.334-.086.564-.125 13.66-.044 14.698.074.946.163 1.454.374 2.128 1.056 3.375 4.583 5.214 9.718 5.067 5.204-.149 8.362-2.289 8.99-6.094.167-1.015.199-1.949.199-5.931v-3.884h-9.666v4.006h2.804v2.366c-.002 2.584-.022 2.818-.283 3.3-.451.829-1.27 1.283-2.397 1.332-1.504.064-2.575-.613-2.915-1.844-.083-.299-.089-.788-.089-7.432 0-6.7.005-7.134.091-7.5.317-1.345 1.263-2.056 2.739-2.056.901 0 1.517.224 2.035.739.606.604.719.998.756 2.644l.027 1.189h6.848V9.92c0-3.01-.557-4.752-1.977-6.167-1.231-1.229-2.769-1.911-5.159-2.288-.537-.085-.931-.105-2.253-.116a46.398 46.398 0 0 0-1.804.007zm-64.806.737c-.014.037-.018 4.821-.008 10.63.016 9.411.027 10.62.099 11.094.279 1.839.822 2.997 1.91 4.075 1.453 1.441 3.46 2.156 6.553 2.335 2.085.121 4.214-.123 5.782-.664 2.891-.997 4.467-3.075 4.721-6.224.034-.419.052-4.275.052-10.98V2.026h-6.859l-.013 10.629-.013 10.629-.112.329c-.284.835-.841 1.372-1.693 1.631-.452.137-1.392.123-1.824-.027-.769-.268-1.249-.732-1.572-1.52l-.108-.263-.025-10.692-.025-10.692-3.419-.013c-2.842-.011-3.424-.001-3.445.055zm-85.328.12c-.087.415-4.987 27.081-4.987 27.138s.608.068 3.654.068h3.654l.028-.163c.058-.335 3.682-24.565 3.682-24.62 0-.031.045-.057.1-.057s.1.028.1.063c0 .061 3.526 24.291 3.582 24.614l.028.163h7.309l-.026-.113c-.033-.143-4.984-27.165-4.984-27.203 0-.015-2.725-.028-6.056-.028h-6.056l-.029.138zm23.189.225c-.024.321-.588 26.14-.584 26.743l.002.238h6.811v-2.091c.001-5.191.154-22.473.2-22.518.027-.027.062-.035.079-.018s1.043 5.514 2.28 12.216a8038.125 8038.125 0 0 0 2.275 12.298l.026.113h6.895l.052-.263c.028-.145 1.049-5.671 2.268-12.282s2.235-12.04 2.259-12.067c.027-.03.059-.03.086 0 .032.036.217 21.373.208 24.148l-.002.463h6.815l-.03-.889c-.016-.489-.141-6.162-.276-12.607s-.26-12.197-.278-12.783l-.032-1.064H70.574l-1.677 10.448c-1.581 9.851-1.712 10.604-1.825 10.479-.009-.01-.77-4.717-1.691-10.46L63.707 2.101l-11.078-.025-.027.363zm88.86 13.184V29.17h6.661v-.614c0-.337-.079-5.233-.175-10.88s-.175-10.385-.175-10.529c0-.413.118-.347.269.15l1.532 5.071 3.241 10.73 1.835 6.072 9.673-.026.025-27.068h-6.763l.029 1.014c.016.558.094 5.003.174 9.878s.156 9.253.17 9.728c.023.796.018.864-.062.864-.073 0-.598-1.759-3.185-10.654a10762.38 10762.38 0 0 1-3.121-10.742c-.022-.083-.306-.088-5.075-.088h-5.052v13.547z"/>
    </symbol>
    <symbol id="icon-skills-green" viewBox="0 0 32 32">
      <path d="M.91.205h19.478c6.231 0 11.282 5.051 11.282 11.281v19.478H12.192C5.961 30.964.911 25.913.911 19.682V.204z" style="fill:var(--color1, #009379)"/>
      <path d="M.072 31.803h1.675v-1.675H.072v1.675zm12.372-12.082 2.143-.758-1.675-1.675-.758 2.143.29.29zM1.055 31.11l11.534-11.535-.29-.29L.765 30.819l.29.29z" style="fill:var(--color2, #2d2d2d)"/>
    </symbol>
    <symbol id="icon-skills-pink" viewBox="0 0 32 32">
      <path d="M.085 16.084C.085 7.318 7.191.212 15.957.212s15.872 7.106 15.872 15.872v15.872H.085V16.084z" style="fill:var(--color3, #f3afa8)"/>
      <path d="M8.32 25.314h1.689v-1.748H8.32v1.748zm14.063-14.338a.21.21 0 0 0-.207-.214h-1.862c-.114 0-.207.096-.207.214s.093.214.207.214h1.655v1.713c0 .118.093.214.207.214s.207-.096.207-.214v-1.927zM9.311 24.592l13.011-13.465-.293-.303L9.018 24.289l.293.303z" style="fill:var(--color2, #2d2d2d)"/>
    </symbol>
    <symbol id="icon-skills-red" viewBox="0 0 33 32">
      <path d="M0 .212c17.532 0 31.744 14.212 31.744 31.744H0V.212z" style="fill:var(--color4, #ff6250)"/>
      <path d="M17.629 17.767h1.728v-1.728h-1.728v1.728zM32.608 2.788h-1.729v1.728h1.729V2.788zM18.643 17.053 31.894 3.802l-.3-.299-13.251 13.251.299.299z" style="fill:var(--color2, #2d2d2d)"/>
    </symbol>
    <symbol id="icon-star" viewBox="0 0 32 32">
      <path d="M14.887 4.03c.559-1.133 2.174-1.133 2.733 0l2.757 5.587c.222.45.651.761 1.147.834l6.166.896c1.25.182 1.749 1.718.845 2.599l-4.461 4.349c-.359.35-.523.854-.438 1.349l1.053 6.141c.213 1.245-1.093 2.194-2.211 1.606l-5.515-2.899a1.526 1.526 0 0 0-1.418 0l-5.515 2.899c-1.118.588-2.424-.362-2.211-1.606l1.053-6.141a1.524 1.524 0 0 0-.438-1.349l-4.462-4.349c-.904-.882-.405-2.418.845-2.599l6.166-.896a1.523 1.523 0 0 0 1.147-.834l2.757-5.587z"/>
    </symbol>
  </defs>
</svg>
